<svg xmlns="http://www.w3.org/2000/svg" xmlns:xlink="http://www.w3.org/1999/xlink" viewBox="0 0 512 512" enable-background="new 0 0 512 512" width="512" height="512"><g><g><path d="m341.5 417.6c-22.9.0-40.7 18.8-40.7 41.7s18.8 41.7 40.7 41.7 40.7-18.8 40.7-41.7-18.8-41.7-40.7-41.7zm0 62.5c-11.5.0-19.8-9.4-19.8-20.9s9.4-20.9 19.8-20.9 19.8 9.4 19.8 20.9-9.4 20.9-19.8 20.9z" fill="#006df0"/><path d="m119.4 417.6c-22.9.0-40.7 18.8-40.7 41.7S97.5 501 119.4 501c22.9.0 40.7-18.8 40.7-41.7s-18.8-41.7-40.7-41.7zm0 62.5c-11.5.0-19.8-9.4-19.8-20.9s9.4-20.9 19.8-20.9c11.5.0 19.8 9.4 19.8 20.9-284217e-19 11.6-9.3 20.9-19.8 20.9z" fill="#006df0"/><path d="m439.5 11-16.2 63.6h-409.2l75.5 223.7c-25.3 3.7-44.2 25.1-44.2 52.6.0 30.2 22.9 54.2 52.1 54.2h283.6v-19.8H97.5c-17.7.0-31.3-14.6-31.3-33.4.0-18.8 14.6-33.4 31.3-33.4h283.6 1l74-286.7h41.7v-20.8h-58.3zm-73 286.7H111.1l-67.8-202.3h374.3l-51.1 202.3z" fill="#006df0"/><path d="M146.5 144.4h20.9v117.8H146.5z" fill="#006df0"/><path d="M220.6 144.4h20.9v117.8H220.6z" fill="#006df0"/><path d="M294.6 144.4h20.9v117.8H294.6z" fill="#006df0"/></g></g></svg>