<svg xmlns="http://www.w3.org/2000/svg" xmlns:xlink="http://www.w3.org/1999/xlink" id="Capa_1" viewBox="0 0 56.966 56.966" style="enable-background:new 0 0 56.966 56.966" width="512" height="512"><path d="M55.146 51.887 41.588 37.786c3.486-4.144 5.396-9.358 5.396-14.786.0-12.682-10.318-23-23-23s-23 10.318-23 23 10.318 23 23 23c4.761.0 9.298-1.436 13.177-4.162l13.661 14.208c.571.593 1.339.92 2.162.92.779.0 1.518-.297 2.079-.837C56.255 54.982 56.293 53.08 55.146 51.887zM23.984 6c9.374.0 17 7.626 17 17s-7.626 17-17 17-17-7.626-17-17S14.61 6 23.984 6z" fill="#933ec5"/><g/><g/><g/><g/><g/><g/><g/><g/><g/><g/><g/><g/><g/><g/><g/></svg>